<svg width="661" height="714" viewBox="0 0 661 714" fill="none" xmlns="http://www.w3.org/2000/svg">
<g clip-path="url(#clip0)">
<mask id="mask0" mask-type="alpha" maskUnits="userSpaceOnUse" x="-45" y="-240" width="984" height="1017">
<path fill-rule="evenodd" clip-rule="evenodd" d="M50.7651 366.914C28.7373 281.868 -11.6286 194.499 18.1986 111.877C49.1246 26.2114 132.35 -25.4226 209.726 -73.4097C291.765 -124.289 379.583 -187.501 474.743 -171.263C569.141 -155.156 622.099 -59.2237 689.831 8.51151C755.511 74.1953 840.401 127.632 863.584 217.597C887.487 310.356 859.69 409.024 814.842 493.645C771.296 575.81 705.516 650.478 617.818 681.319C535.833 710.151 450.399 668.9 365.191 651.774C286.829 636.025 200.111 639.137 140.861 585.459C81.0115 531.237 71.018 445.108 50.7651 366.914Z" fill="#C4C4C4"/>
</mask>
<g mask="url(#mask0)">
<rect x="-4.86493" y="-2.56519" width="666.25" height="861.089" fill="#C4C4C4"/>
</g>
</g>
<defs>
<clipPath id="clip0">
<rect width="661" height="714" fill="white"/>
</clipPath>
</defs>
</svg>
